<svg xmlns="http://www.w3.org/2000/svg" width="2433" height="1352" viewBox="0 0 2433 1352">
<rect width="100%" height="100%" fill="#fbfcfd"/>
<style>text{font-family:"STHeiti","PingFang SC","Microsoft YaHei",sans-serif;} .wall{stroke:#111827;stroke-linecap:square;fill:none;} .dim{stroke:#53616f;stroke-width:2;fill:none;} .grid-major{stroke:#e7ebef;stroke-width:1;} .grid-minor{stroke:#f1f3f5;stroke-width:1;}</style>
<line class="grid-major" x1="150.0" y1="145.0" x2="150.0" y2="1182.4"/>
<line class="grid-minor" x1="185.0" y1="145.0" x2="185.0" y2="1182.4"/>
<line class="grid-major" x1="220.0" y1="145.0" x2="220.0" y2="1182.4"/>
<line class="grid-minor" x1="255.0" y1="145.0" x2="255.0" y2="1182.4"/>
<line class="grid-major" x1="290.0" y1="145.0" x2="290.0" y2="1182.4"/>
<line class="grid-minor" x1="325.0" y1="145.0" x2="325.0" y2="1182.4"/>
<line class="grid-major" x1="360.0" y1="145.0" x2="360.0" y2="1182.4"/>
<line class="grid-minor" x1="395.0" y1="145.0" x2="395.0" y2="1182.4"/>
<line class="grid-major" x1="430.0" y1="145.0" x2="430.0" y2="1182.4"/>
<line class="grid-minor" x1="465.0" y1="145.0" x2="465.0" y2="1182.4"/>
<line class="grid-major" x1="500.0" y1="145.0" x2="500.0" y2="1182.4"/>
<line class="grid-minor" x1="535.0" y1="145.0" x2="535.0" y2="1182.4"/>
<line class="grid-major" x1="570.0" y1="145.0" x2="570.0" y2="1182.4"/>
<line class="grid-minor" x1="605.0" y1="145.0" x2="605.0" y2="1182.4"/>
<line class="grid-major" x1="640.0" y1="145.0" x2="640.0" y2="1182.4"/>
<line class="grid-minor" x1="675.0" y1="145.0" x2="675.0" y2="1182.4"/>
<line class="grid-major" x1="710.0" y1="145.0" x2="710.0" y2="1182.4"/>
<line class="grid-minor" x1="745.0" y1="145.0" x2="745.0" y2="1182.4"/>
<line class="grid-major" x1="780.0" y1="145.0" x2="780.0" y2="1182.4"/>
<line class="grid-minor" x1="815.0" y1="145.0" x2="815.0" y2="1182.4"/>
<line class="grid-major" x1="850.0" y1="145.0" x2="850.0" y2="1182.4"/>
<line class="grid-minor" x1="885.0" y1="145.0" x2="885.0" y2="1182.4"/>
<line class="grid-major" x1="920.0" y1="145.0" x2="920.0" y2="1182.4"/>
<line class="grid-minor" x1="955.0" y1="145.0" x2="955.0" y2="1182.4"/>
<line class="grid-major" x1="990.0" y1="145.0" x2="990.0" y2="1182.4"/>
<line class="grid-minor" x1="1025.0" y1="145.0" x2="1025.0" y2="1182.4"/>
<line class="grid-major" x1="1060.0" y1="145.0" x2="1060.0" y2="1182.4"/>
<line class="grid-minor" x1="1095.0" y1="145.0" x2="1095.0" y2="1182.4"/>
<line class="grid-major" x1="1130.0" y1="145.0" x2="1130.0" y2="1182.4"/>
<line class="grid-minor" x1="1165.0" y1="145.0" x2="1165.0" y2="1182.4"/>
<line class="grid-major" x1="1200.0" y1="145.0" x2="1200.0" y2="1182.4"/>
<line class="grid-minor" x1="1235.0" y1="145.0" x2="1235.0" y2="1182.4"/>
<line class="grid-major" x1="1270.0" y1="145.0" x2="1270.0" y2="1182.4"/>
<line class="grid-minor" x1="1305.0" y1="145.0" x2="1305.0" y2="1182.4"/>
<line class="grid-major" x1="1340.0" y1="145.0" x2="1340.0" y2="1182.4"/>
<line class="grid-minor" x1="1375.0" y1="145.0" x2="1375.0" y2="1182.4"/>
<line class="grid-major" x1="1410.0" y1="145.0" x2="1410.0" y2="1182.4"/>
<line class="grid-minor" x1="1445.0" y1="145.0" x2="1445.0" y2="1182.4"/>
<line class="grid-major" x1="1480.0" y1="145.0" x2="1480.0" y2="1182.4"/>
<line class="grid-minor" x1="1515.0" y1="145.0" x2="1515.0" y2="1182.4"/>
<line class="grid-major" x1="1550.0" y1="145.0" x2="1550.0" y2="1182.4"/>
<line class="grid-minor" x1="1585.0" y1="145.0" x2="1585.0" y2="1182.4"/>
<line class="grid-major" x1="1620.0" y1="145.0" x2="1620.0" y2="1182.4"/>
<line class="grid-minor" x1="1655.0" y1="145.0" x2="1655.0" y2="1182.4"/>
<line class="grid-major" x1="1690.0" y1="145.0" x2="1690.0" y2="1182.4"/>
<line class="grid-minor" x1="1725.0" y1="145.0" x2="1725.0" y2="1182.4"/>
<line class="grid-major" x1="1760.0" y1="145.0" x2="1760.0" y2="1182.4"/>
<line class="grid-minor" x1="1795.0" y1="145.0" x2="1795.0" y2="1182.4"/>
<line class="grid-major" x1="1830.0" y1="145.0" x2="1830.0" y2="1182.4"/>
<line class="grid-minor" x1="1865.0" y1="145.0" x2="1865.0" y2="1182.4"/>
<line class="grid-major" x1="1900.0" y1="145.0" x2="1900.0" y2="1182.4"/>
<line class="grid-minor" x1="1935.0" y1="145.0" x2="1935.0" y2="1182.4"/>
<line class="grid-major" x1="1970.0" y1="145.0" x2="1970.0" y2="1182.4"/>
<line class="grid-minor" x1="2005.0" y1="145.0" x2="2005.0" y2="1182.4"/>
<line class="grid-major" x1="2040.0" y1="145.0" x2="2040.0" y2="1182.4"/>
<line class="grid-minor" x1="2075.0" y1="145.0" x2="2075.0" y2="1182.4"/>
<line class="grid-major" x1="2110.0" y1="145.0" x2="2110.0" y2="1182.4"/>
<line class="grid-minor" x1="2145.0" y1="145.0" x2="2145.0" y2="1182.4"/>
<line class="grid-major" x1="2180.0" y1="145.0" x2="2180.0" y2="1182.4"/>
<line class="grid-minor" x1="2215.0" y1="145.0" x2="2215.0" y2="1182.4"/>
<line class="grid-major" x1="150.0" y1="145.0" x2="2243.0" y2="145.0"/>
<line class="grid-minor" x1="150.0" y1="180.0" x2="2243.0" y2="180.0"/>
<line class="grid-major" x1="150.0" y1="215.0" x2="2243.0" y2="215.0"/>
<line class="grid-minor" x1="150.0" y1="250.0" x2="2243.0" y2="250.0"/>
<line class="grid-major" x1="150.0" y1="285.0" x2="2243.0" y2="285.0"/>
<line class="grid-minor" x1="150.0" y1="320.0" x2="2243.0" y2="320.0"/>
<line class="grid-major" x1="150.0" y1="355.0" x2="2243.0" y2="355.0"/>
<line class="grid-minor" x1="150.0" y1="390.0" x2="2243.0" y2="390.0"/>
<line class="grid-major" x1="150.0" y1="425.0" x2="2243.0" y2="425.0"/>
<line class="grid-minor" x1="150.0" y1="460.0" x2="2243.0" y2="460.0"/>
<line class="grid-major" x1="150.0" y1="495.0" x2="2243.0" y2="495.0"/>
<line class="grid-minor" x1="150.0" y1="530.0" x2="2243.0" y2="530.0"/>
<line class="grid-major" x1="150.0" y1="565.0" x2="2243.0" y2="565.0"/>
<line class="grid-minor" x1="150.0" y1="600.0" x2="2243.0" y2="600.0"/>
<line class="grid-major" x1="150.0" y1="635.0" x2="2243.0" y2="635.0"/>
<line class="grid-minor" x1="150.0" y1="670.0" x2="2243.0" y2="670.0"/>
<line class="grid-major" x1="150.0" y1="705.0" x2="2243.0" y2="705.0"/>
<line class="grid-minor" x1="150.0" y1="740.0" x2="2243.0" y2="740.0"/>
<line class="grid-major" x1="150.0" y1="775.0" x2="2243.0" y2="775.0"/>
<line class="grid-minor" x1="150.0" y1="810.0" x2="2243.0" y2="810.0"/>
<line class="grid-major" x1="150.0" y1="845.0" x2="2243.0" y2="845.0"/>
<line class="grid-minor" x1="150.0" y1="880.0" x2="2243.0" y2="880.0"/>
<line class="grid-major" x1="150.0" y1="915.0" x2="2243.0" y2="915.0"/>
<line class="grid-minor" x1="150.0" y1="950.0" x2="2243.0" y2="950.0"/>
<line class="grid-major" x1="150.0" y1="985.0" x2="2243.0" y2="985.0"/>
<line class="grid-minor" x1="150.0" y1="1020.0" x2="2243.0" y2="1020.0"/>
<line class="grid-major" x1="150.0" y1="1055.0" x2="2243.0" y2="1055.0"/>
<line class="grid-minor" x1="150.0" y1="1090.0" x2="2243.0" y2="1090.0"/>
<line class="grid-major" x1="150.0" y1="1125.0" x2="2243.0" y2="1125.0"/>
<line class="grid-minor" x1="150.0" y1="1160.0" x2="2243.0" y2="1160.0"/>
<text x="150" y="68" font-size="34" font-weight="500" fill="#111827">平面布置图</text>
<text x="340" y="68" font-size="22" fill="#40505f">外框尺寸：长 29.90 m × 宽 14.82 m</text>
<rect x="150.0" y="145.0" width="2093" height="1037" class="wall" stroke-width="7"/>
<text x="255.0" y="348.7" text-anchor="middle" dominant-baseline="middle" font-size="28" font-weight="500" fill="#15202b">1号房间</text>
<text x="255.0" y="385.7" text-anchor="middle" dominant-baseline="middle" font-size="18" fill="#53616f">3.00 × 6.22m</text>
<line class="wall" stroke-width="5" x1="150.0" y1="580.4" x2="272.5" y2="580.4"/>
<line class="wall" stroke-width="5" x1="335.5" y1="580.4" x2="360.0" y2="580.4"/>
<path d="M 335.5 580.4 H 272.5" stroke="#1f2933" stroke-width="2" fill="none"/>
<path d="M 335.5 580.4 A 63.0 63.0 0 0 0 272.5 517.4" stroke="#1f2933" stroke-width="2" fill="none"/>
<line class="wall" stroke-width="5" x1="360.0" y1="145.0" x2="360.0" y2="580.4"/>
<text x="570.0" y="348.7" text-anchor="middle" dominant-baseline="middle" font-size="28" font-weight="500" fill="#15202b">2号房间</text>
<text x="570.0" y="385.7" text-anchor="middle" dominant-baseline="middle" font-size="18" fill="#53616f">6.00 × 6.22m</text>
<line class="wall" stroke-width="5" x1="360.0" y1="580.4" x2="692.5" y2="580.4"/>
<line class="wall" stroke-width="5" x1="755.5" y1="580.4" x2="780.0" y2="580.4"/>
<path d="M 755.5 580.4 H 692.5" stroke="#1f2933" stroke-width="2" fill="none"/>
<path d="M 755.5 580.4 A 63.0 63.0 0 0 0 692.5 517.4" stroke="#1f2933" stroke-width="2" fill="none"/>
<line class="wall" stroke-width="5" x1="780.0" y1="145.0" x2="780.0" y2="580.4"/>
<text x="1095.0" y="348.7" text-anchor="middle" dominant-baseline="middle" font-size="28" font-weight="500" fill="#15202b">3号房间</text>
<text x="1095.0" y="385.7" text-anchor="middle" dominant-baseline="middle" font-size="18" fill="#53616f">9.00 × 6.22m</text>
<line class="wall" stroke-width="5" x1="780.0" y1="580.4" x2="1322.5" y2="580.4"/>
<line class="wall" stroke-width="5" x1="1385.5" y1="580.4" x2="1410.0" y2="580.4"/>
<path d="M 1385.5 580.4 H 1322.5" stroke="#1f2933" stroke-width="2" fill="none"/>
<path d="M 1385.5 580.4 A 63.0 63.0 0 0 0 1322.5 517.4" stroke="#1f2933" stroke-width="2" fill="none"/>
<line class="wall" stroke-width="5" x1="1410.0" y1="145.0" x2="1410.0" y2="580.4"/>
<text x="1515.0" y="348.7" text-anchor="middle" dominant-baseline="middle" font-size="28" font-weight="500" fill="#15202b">4号房间</text>
<text x="1515.0" y="385.7" text-anchor="middle" dominant-baseline="middle" font-size="18" fill="#53616f">3.00 × 6.22m</text>
<line class="wall" stroke-width="5" x1="1410.0" y1="580.4" x2="1532.5" y2="580.4"/>
<line class="wall" stroke-width="5" x1="1595.5" y1="580.4" x2="1620.0" y2="580.4"/>
<path d="M 1595.5 580.4 H 1532.5" stroke="#1f2933" stroke-width="2" fill="none"/>
<path d="M 1595.5 580.4 A 63.0 63.0 0 0 0 1532.5 517.4" stroke="#1f2933" stroke-width="2" fill="none"/>
<line class="wall" stroke-width="5" x1="1620.0" y1="145.0" x2="1620.0" y2="580.4"/>
<text x="1725.0" y="348.7" text-anchor="middle" dominant-baseline="middle" font-size="28" font-weight="500" fill="#15202b">5号房间</text>
<text x="1725.0" y="385.7" text-anchor="middle" dominant-baseline="middle" font-size="18" fill="#53616f">3.00 × 6.22m</text>
<line class="wall" stroke-width="5" x1="1620.0" y1="580.4" x2="1742.5" y2="580.4"/>
<line class="wall" stroke-width="5" x1="1805.5" y1="580.4" x2="1830.0" y2="580.4"/>
<path d="M 1805.5 580.4 H 1742.5" stroke="#1f2933" stroke-width="2" fill="none"/>
<path d="M 1805.5 580.4 A 63.0 63.0 0 0 0 1742.5 517.4" stroke="#1f2933" stroke-width="2" fill="none"/>
<line class="wall" stroke-width="5" x1="1830.0" y1="145.0" x2="1830.0" y2="580.4"/>
<text x="2036.5" y="348.7" text-anchor="middle" dominant-baseline="middle" font-size="28" font-weight="500" fill="#15202b">6号房间</text>
<text x="2036.5" y="385.7" text-anchor="middle" dominant-baseline="middle" font-size="18" fill="#53616f">5.90 × 6.22m</text>
<line class="wall" stroke-width="5" x1="1830.0" y1="580.4" x2="2155.5" y2="580.4"/>
<line class="wall" stroke-width="5" x1="2218.5" y1="580.4" x2="2243.0" y2="580.4"/>
<path d="M 2218.5 580.4 H 2155.5" stroke="#1f2933" stroke-width="2" fill="none"/>
<path d="M 2218.5 580.4 A 63.0 63.0 0 0 0 2155.5 517.4" stroke="#1f2933" stroke-width="2" fill="none"/>
<line class="wall" stroke-width="5" x1="150.0" y1="692.4" x2="685.5" y2="692.4"/>
<line class="wall" stroke-width="5" x1="752.0" y1="692.4" x2="1284.0" y2="692.4"/>
<line class="wall" stroke-width="5" x1="1508.0" y1="692.4" x2="2243.0" y2="692.4"/>
<path d="M 752.0 692.4 H 685.5" stroke="#1f2933" stroke-width="2" fill="none"/>
<path d="M 752.0 692.4 A 66.5 66.5 0 0 1 685.5 758.9" stroke="#1f2933" stroke-width="2" fill="none"/>
<line class="wall" stroke-width="5" x1="780.0" y1="692.4" x2="780.0" y2="1079.5"/>
<line class="wall" stroke-width="5" x1="780.0" y1="1146.0" x2="780.0" y2="1182.4"/>
<path d="M 780.0 1146.0 H 713.5" stroke="#1f2933" stroke-width="2" fill="none"/>
<path d="M 780.0 1146.0 A 66.5 66.5 0 0 0 713.5 1079.5" stroke="#1f2933" stroke-width="2" fill="none"/>
<line class="wall" stroke-width="5" x1="150.0" y1="1042.4" x2="780.0" y2="1042.4"/>
<line class="wall" stroke-width="5" x1="1613.0" y1="783.4" x2="1613.0" y2="1182.4"/>
<line class="wall" stroke-width="5" x1="1613.0" y1="692.4" x2="2243.0" y2="692.4"/>
<text x="465.0" y="853.4" text-anchor="middle" dominant-baseline="middle" font-size="28" font-weight="500" fill="#15202b">7号房间</text>
<text x="465.0" y="890.4" text-anchor="middle" dominant-baseline="middle" font-size="18" fill="#53616f">9.00 × 5.00m</text>
<text x="465.0" y="1098.4" text-anchor="middle" dominant-baseline="middle" font-size="28" font-weight="500" fill="#15202b">8号房间</text>
<text x="465.0" y="1135.4" text-anchor="middle" dominant-baseline="middle" font-size="18" fill="#53616f">9.00 × 2.00m</text>
<text x="1928.0" y="923.4" text-anchor="middle" dominant-baseline="middle" font-size="28" font-weight="500" fill="#15202b">9号房间</text>
<text x="1928.0" y="960.4" text-anchor="middle" dominant-baseline="middle" font-size="18" fill="#53616f">9.00 × 7.00m</text>
<line x1="899.0" y1="692.4" x2="1284.0" y2="692.4" stroke="#687684" stroke-width="7"/>
<line class="wall" stroke-width="7" x1="150.0" y1="1182.4" x2="1053.0" y2="1182.4"/>
<line class="wall" stroke-width="7" x1="1214.0" y1="1182.4" x2="2243.0" y2="1182.4"/>
<path d="M 1053.0 1182.4 H 1126.5" stroke="#1f2933" stroke-width="2" fill="none"/>
<path d="M 1053.0 1182.4 A 73.5 73.5 0 0 1 1126.5 1108.9" stroke="#1f2933" stroke-width="2" fill="none"/>
<path d="M 1214.0 1182.4 H 1140.5" stroke="#1f2933" stroke-width="2" fill="none"/>
<path d="M 1214.0 1182.4 A 73.5 73.5 0 0 0 1140.5 1108.9" stroke="#1f2933" stroke-width="2" fill="none"/>
<rect x="1088.7" y="467.7" width="54.6" height="54.6" fill="#eef2f5" stroke="#111827" stroke-width="3"/>
<line x1="1052.7" y1="522.3" x2="1122.7" y2="467.7" stroke="#77838f" stroke-width="2"/>
<line x1="1070.7" y1="522.3" x2="1140.7" y2="467.7" stroke="#77838f" stroke-width="2"/>
<line x1="1088.7" y1="522.3" x2="1158.7" y2="467.7" stroke="#77838f" stroke-width="2"/>
<line x1="1106.7" y1="522.3" x2="1176.7" y2="467.7" stroke="#77838f" stroke-width="2"/>
<line x1="1124.7" y1="522.3" x2="1194.7" y2="467.7" stroke="#77838f" stroke-width="2"/>
<line x1="1142.7" y1="522.3" x2="1212.7" y2="467.7" stroke="#77838f" stroke-width="2"/>
<line x1="1160.7" y1="522.3" x2="1230.7" y2="467.7" stroke="#77838f" stroke-width="2"/>
<rect x="1655.7" y="467.7" width="54.6" height="54.6" fill="#eef2f5" stroke="#111827" stroke-width="3"/>
<line x1="1619.7" y1="522.3" x2="1689.7" y2="467.7" stroke="#77838f" stroke-width="2"/>
<line x1="1637.7" y1="522.3" x2="1707.7" y2="467.7" stroke="#77838f" stroke-width="2"/>
<line x1="1655.7" y1="522.3" x2="1725.7" y2="467.7" stroke="#77838f" stroke-width="2"/>
<line x1="1673.7" y1="522.3" x2="1743.7" y2="467.7" stroke="#77838f" stroke-width="2"/>
<line x1="1691.7" y1="522.3" x2="1761.7" y2="467.7" stroke="#77838f" stroke-width="2"/>
<line x1="1709.7" y1="522.3" x2="1779.7" y2="467.7" stroke="#77838f" stroke-width="2"/>
<line x1="1727.7" y1="522.3" x2="1797.7" y2="467.7" stroke="#77838f" stroke-width="2"/>
<line class="dim" x1="150.0" y1="622.4" x2="360.0" y2="622.4"/>
<text x="255.0" y="613.4" text-anchor="middle" font-size="22" fill="#27323d">3.00m</text>
<line class="dim" x1="360.0" y1="622.4" x2="780.0" y2="622.4"/>
<text x="570.0" y="613.4" text-anchor="middle" font-size="22" fill="#27323d">6.00m</text>
<line class="dim" x1="780.0" y1="622.4" x2="1410.0" y2="622.4"/>
<text x="1095.0" y="613.4" text-anchor="middle" font-size="22" fill="#27323d">9.00m</text>
<line class="dim" x1="1410.0" y1="622.4" x2="1620.0" y2="622.4"/>
<text x="1515.0" y="613.4" text-anchor="middle" font-size="22" fill="#27323d">3.00m</text>
<line class="dim" x1="1620.0" y1="622.4" x2="1830.0" y2="622.4"/>
<text x="1725.0" y="613.4" text-anchor="middle" font-size="22" fill="#27323d">3.00m</text>
<line class="dim" x1="1830.0" y1="622.4" x2="2243.0" y2="622.4"/>
<text x="2036.5" y="613.4" text-anchor="middle" font-size="22" fill="#27323d">5.90m</text>
<line class="dim" x1="150.0" y1="103.0" x2="2243.0" y2="103.0"/>
<text x="1196.5" y="94.0" text-anchor="middle" font-size="22" fill="#27323d">29.90m</text>
<line class="dim" x1="2295.0" y1="145.0" x2="2295.0" y2="1182.4"/>
<text x="2295.0" y="663.7" text-anchor="middle" font-size="22" fill="#27323d" transform="rotate(90 2295.0 663.7)">14.82m</text>
<line class="dim" x1="90.5" y1="145.0" x2="90.5" y2="580.4"/>
<text x="90.5" y="362.7" text-anchor="middle" font-size="22" fill="#27323d" transform="rotate(90 90.5 362.7)">6.22m</text>
<line class="dim" x1="90.5" y1="580.4" x2="90.5" y2="692.4"/>
<text x="90.5" y="636.4" text-anchor="middle" font-size="22" fill="#27323d" transform="rotate(90 90.5 636.4)">1.60m</text>
<line class="dim" x1="90.5" y1="692.4" x2="90.5" y2="1042.4"/>
<text x="90.5" y="867.4" text-anchor="middle" font-size="22" fill="#27323d" transform="rotate(90 90.5 867.4)">5.00m</text>
<line class="dim" x1="90.5" y1="1042.4" x2="90.5" y2="1182.4"/>
<text x="90.5" y="1112.4" text-anchor="middle" font-size="22" fill="#27323d" transform="rotate(90 90.5 1112.4)">2.00m</text>
<text x="150" y="1264" font-size="18" fill="#687684">注：内部隔墙、门洞和柱位依据手绘图近似整理；如用于施工，请补充精确柱距、门宽和墙厚。</text>
<text x="150" y="1294" font-size="18" fill="#687684">比例：约 1:100    单位：米</text>
</svg>
